<svg width="960" height="260" viewBox="0 0 960 260" fill="none" xmlns="http://www.w3.org/2000/svg" role="img" aria-labelledby="title desc">
  <title id="title">PipePilot logo</title>
  <desc id="desc">PipePilot wordmark with a pipeline route and pilot marker.</desc>
  <rect width="960" height="260" rx="32" fill="#07111F"/>
  <path d="M86 142C86 105.549 115.549 76 152 76H218C254.451 76 284 105.549 284 142C284 178.451 254.451 208 218 208H152C115.549 208 86 178.451 86 142Z" fill="#0EA5E9"/>
  <path d="M154 110H218C235.673 110 250 124.327 250 142C250 159.673 235.673 174 218 174H154V110Z" fill="#07111F"/>
  <path d="M154 128H214C221.732 128 228 134.268 228 142C228 149.732 221.732 156 214 156H154V128Z" fill="#F8FAFC"/>
  <path d="M298 142H372" stroke="#38BDF8" stroke-width="14" stroke-linecap="round"/>
  <circle cx="405" cy="142" r="28" fill="#22C55E"/>
  <path d="M405 126V158M389 142H421" stroke="#07111F" stroke-width="8" stroke-linecap="round"/>
  <path d="M451 142H528" stroke="#38BDF8" stroke-width="14" stroke-linecap="round"/>
  <path d="M548 106L618 142L548 178V106Z" fill="#F8FAFC"/>
  <text x="655" y="132" fill="#F8FAFC" font-family="Inter, Segoe UI, Arial, sans-serif" font-size="52" font-weight="800" letter-spacing="0">PipePilot</text>
  <text x="657" y="171" fill="#93C5FD" font-family="Inter, Segoe UI, Arial, sans-serif" font-size="22" font-weight="600" letter-spacing="0">Automate. Validate. Deploy. Rollback safely.</text>
</svg>
